<svg id="Layer_1" data-name="Layer 1" xmlns="http://www.w3.org/2000/svg" viewBox="0 0 68.25 75.33"><defs><style>.cls-1{fill:#b96341;}.cls-2{fill:#85422b;}.cls-3{fill:#1d1d1b;}</style></defs><title>huemul-imago</title><path class="cls-1" d="M71.62,90.12l1.21-5A2.84,2.84,0,0,0,68,83.6s-11.88,9.61-15.3,16.25c-.05.11-.46-.16-.46-.16a36.52,36.52,0,0,0-12.3-2.06,36.52,36.52,0,0,0-12.3,2.06s-.41.27-.46.16c-3.54-6.93-15.3-16.25-15.3-16.25A2.84,2.84,0,0,0,7,85.08l.89,4.08c-.77,4.61-1.26,9,1.34,12.84A18.42,18.42,0,0,0,17,108.57l7.47,3.32L24.07,113a12,12,0,0,0,.13,8.26L24,127.35c-.18,6.91,1.46,15.39,7.64,18.33a1.32,1.32,0,0,1,.67.6h.35a10.21,10.21,0,0,0,1.56,2.26,7.76,7.76,0,0,0,11.42,0,10.4,10.4,0,0,0,1.54-2.23h.44a2.28,2.28,0,0,1,.68-.61c7.22-4.57,7.81-11.41,7.63-18.32l-.16-6.06a11.92,11.92,0,0,0,.13-8.26l-.41-1.14v-.12l7.28-3.24A18.36,18.36,0,0,0,70.6,102c2.6-3.88,1.79-7.27,1-11.88" transform="translate(-5.83 -76.19)"/><path class="cls-2" d="M71.69,84a1.71,1.71,0,0,0-2.16-.5,40.56,40.56,0,0,0-17.24,17s-.56-.15-1.34-.4a43.57,43.57,0,0,0-9.8-1.83v-.14L40,98.12l-1.2-.05v.14A43.57,43.57,0,0,0,29,100c-.77.25-1.33.41-1.33.4a40.62,40.62,0,0,0-17.24-17,1.71,1.71,0,0,0-2.16.5,1.67,1.67,0,0,0-.28,1.1A9.93,9.93,0,0,0,10.28,90C14.92,94.83,19.94,99,23,105.41A14.61,14.61,0,0,1,24.43,109c-.23,2.08-.95,8.31-.95,8.31l.55-.4a6.55,6.55,0,0,1,7.34-.39,6.35,6.35,0,0,1,3,4.78s0,.61.07,1.47a43.57,43.57,0,0,1-1.77,14.76A37.88,37.88,0,0,0,31,144.34c0,6.73,17.86,6.73,17.86,0a37.88,37.88,0,0,0-1.61-6.86,43.83,43.83,0,0,1-1.77-14.76c0-.86.08-1.44.08-1.47a6.35,6.35,0,0,1,3-4.78,6.55,6.55,0,0,1,7.34.39l.55.4s-.73-6.23-1-8.31a14.61,14.61,0,0,1,1.47-3.54C60,99,65,94.83,69.62,90A9.93,9.93,0,0,0,72,85.09a1.73,1.73,0,0,0-.27-1.1" transform="translate(-5.83 -76.19)"/><path class="cls-3" d="M33,121.51A2.55,2.55,0,1,1,30.44,119,2.55,2.55,0,0,1,33,121.51" transform="translate(-5.83 -76.19)"/><path class="cls-3" d="M52,121.51A2.55,2.55,0,1,1,49.46,119,2.55,2.55,0,0,1,52,121.51" transform="translate(-5.83 -76.19)"/><path class="cls-3" d="M74.06,85.63a4,4,0,0,0-6.82-2.2l-2.61,1.8a40.74,40.74,0,0,0-12.49,13.9A36.75,36.75,0,0,0,47.79,98a3.1,3.1,0,0,0,.79-2.31V91.93c0-1.75.43-2.52,1.56-2.52h.26V86.8h-.26c-1.13,0-1.56-.77-1.56-2.52V80.56c0-2.83-2-4.37-4.82-4.37h-1v2.59h.51c1.63,0,2.3.77,2.3,2.83v3.63c0,2.23,1.27,2.73,2.57,2.85A2.53,2.53,0,0,0,45.58,91V94.6c0,1.75-.49,2.56-1.63,2.77a35.6,35.6,0,0,0-4-.2,38.37,38.37,0,0,0-4,.19c-1.12-.21-1.61-1-1.61-2.76V91a2.52,2.52,0,0,0-2.56-2.88c1.29-.12,2.56-.62,2.56-2.85V81.61c0-2.06.68-2.83,2.31-2.83h.5V76.19h-1c-2.79,0-4.83,1.54-4.83,4.37v3.72c0,1.75-.43,2.52-1.56,2.52H29.5v2.61h.26c1.13,0,1.56.77,1.56,2.52v3.72a3.11,3.11,0,0,0,.79,2.3,36.64,36.64,0,0,0-4.37,1.19l-.53-.93A40.78,40.78,0,0,0,12.63,83.39a4,4,0,0,0-6.78,2.24,1.1,1.1,0,0,0,.06.62l.1.27a13,13,0,0,1,.66,6.3c-.47,3.37-.64,7.25,1.59,10.6a19.55,19.55,0,0,0,8.31,7l6.56,2.92,0,0a13.09,13.09,0,0,0,.06,8.86l-.1,5.7a33.16,33.16,0,0,0,1,9.13c2.22,8.32,7.67,12.11,10.89,13.23a5.57,5.57,0,0,0,3.47,1.22h3a5.6,5.6,0,0,0,3.48-1.22c3.22-1.12,8.67-4.91,10.88-13.23a33.15,33.15,0,0,0,1.05-9.13l-.1-5.7a13.15,13.15,0,0,0,0-8.86l0,0,6.57-2.93a19.52,19.52,0,0,0,8.3-7c2.24-3.35,2.06-7.23,1.6-10.6a13,13,0,0,1,.66-6.3l.1-.27a1.31,1.31,0,0,0,.06-.62m-3.2,7.52c.42,3.06.57,6.26-1.21,8.93a17.19,17.19,0,0,1-7.29,6.14l-6,2.67-.16-3,3.51-5.26a1.2,1.2,0,0,0-2-1.33L54,106.88a1.26,1.26,0,0,0-.2.73l.27,5.09a1.28,1.28,0,0,0,.07.34l.4,1.14a10.65,10.65,0,0,1-.12,7.42,1.44,1.44,0,0,0-.08.46l.11,5.92a31.07,31.07,0,0,1-1,8.47,17.74,17.74,0,0,1-6.46,10,4.89,4.89,0,0,0,0-.54,5.64,5.64,0,0,0-5.62-5.63h-3a5.64,5.64,0,0,0-5.62,5.63,4.89,4.89,0,0,0,0,.54,17.74,17.74,0,0,1-6.45-10,30.68,30.68,0,0,1-1-8.47l.1-5.92a1.21,1.21,0,0,0-.08-.46,10.7,10.7,0,0,1-.11-7.42l.4-1.14a1,1,0,0,0,.06-.34l.27-5.09a1.13,1.13,0,0,0-.2-.73l-3.73-5.59a1.2,1.2,0,0,0-2,1.33l3.51,5.26-.15,3-6-2.67a17.08,17.08,0,0,1-7.29-6.14c-1.78-2.67-1.64-5.87-1.21-8.93a15.4,15.4,0,0,0-.77-7.4,1.63,1.63,0,0,1,1.07-1,1.61,1.61,0,0,1,1.67.44.75.75,0,0,0,.26.21,38.21,38.21,0,0,1,13.84,14l1,1.79a1.19,1.19,0,0,0,1.44.54l.46-.16a35.09,35.09,0,0,1,11.7-2H40a35.76,35.76,0,0,1,11.83,2l.46.16a1.2,1.2,0,0,0,1.46-.57l.25-.48A38.18,38.18,0,0,1,66,87.21l2.7-1.87a1.54,1.54,0,0,0,.19-.17,1.59,1.59,0,0,1,1.66-.44,1.61,1.61,0,0,1,1.07,1,15.39,15.39,0,0,0-.76,7.4" transform="translate(-5.83 -76.19)"/></svg>